<svg width="1200" height="169" viewBox="0 0 1200 169" fill="none" xmlns="http://www.w3.org/2000/svg">
<path d="M1288 -5C1288 17.85 1270.2 40.4763 1235.63 61.5869C1201.05 82.6976 1150.38 101.879 1086.49 118.037C1022.6 134.194 946.758 147.011 863.286 155.755C779.814 164.499 690.349 169 600 169C509.651 169 420.186 164.499 336.714 155.755C253.242 147.011 177.397 134.194 113.51 118.037C49.6238 101.879 -1.05391 82.6976 -35.6291 61.5869C-70.2044 40.4763 -88 17.85 -88 -5.00002L600 -5H1288Z" fill="#F8A62A"/>
<path d="M840 -5H359L396.716 97.7798C402.495 113.53 417.49 124 434.267 124H764.733C781.51 124 796.505 113.53 802.284 97.7798L840 -5Z" fill="#005E5D"/>
<path d="M537.885 80.2014C537.762 79.9552 537.885 79.7705 538.147 79.6927L538.516 79.6004C538.763 79.5388 538.902 79.6312 539.027 79.8629C539.427 80.6032 540.336 81.2512 541.616 81.2512C543.203 81.2512 544.143 80.4023 544.143 79.3542C544.143 78.3822 543.31 77.7812 542.387 77.459L540.66 76.8725C538.609 76.2082 538.24 75.0225 538.24 74.1138C538.24 72.2946 539.842 71.2013 541.661 71.2013C543.326 71.2013 544.528 72.0177 544.975 73.2359C545.068 73.4821 544.945 73.6685 544.697 73.7446L544.374 73.8369C544.128 73.9147 543.974 73.8224 543.866 73.5744C543.527 72.7562 542.709 72.2946 541.646 72.2946C540.475 72.2946 539.472 72.9572 539.472 74.0831C539.472 74.6225 539.657 75.3013 541.029 75.7955L542.77 76.4109C544.36 76.9214 545.346 78.0455 545.346 79.28C545.346 81.0684 543.882 82.3301 541.646 82.3301C539.749 82.3301 538.424 81.3906 537.883 80.2032L537.885 80.2014Z" fill="white"/>
<path d="M548.757 85.1974V74.885C548.757 74.6225 548.911 74.4686 549.157 74.4686H549.514C549.776 74.4686 549.93 74.6225 549.93 74.885V75.9783C550.623 74.8216 551.718 74.2985 552.937 74.2985C555.281 74.2985 556.791 76.1014 556.791 78.3206C556.791 80.5399 555.31 82.3283 552.951 82.3283C551.702 82.3283 550.609 81.7907 549.93 80.6485V85.1974C549.93 85.4598 549.776 85.6137 549.514 85.6137H549.157C548.911 85.6137 548.757 85.4598 548.757 85.1974ZM555.603 78.3206C555.603 76.6861 554.569 75.3466 552.814 75.3466C551.058 75.3466 549.915 76.5956 549.899 78.3206C549.915 80.0167 551.087 81.2802 552.814 81.2802C554.541 81.2802 555.603 79.9244 555.603 78.3206Z" fill="white"/>
<path d="M559.633 78.3206C559.633 76.1159 561.452 74.2985 563.655 74.2985C565.858 74.2985 567.71 76.1322 567.71 78.3206C567.71 80.5091 565.891 82.3283 563.655 82.3283C561.419 82.3283 559.633 80.5562 559.633 78.3206ZM566.524 78.3369C566.524 76.7024 565.244 75.3466 563.655 75.3466C562.066 75.3466 560.818 76.7024 560.818 78.3369C560.818 79.9715 562.098 81.2802 563.655 81.2802C565.212 81.2802 566.524 79.9552 566.524 78.3369Z" fill="white"/>
<path d="M571.182 81.7436V71.4312C571.182 71.1687 571.336 71.0149 571.598 71.0149H571.953C572.199 71.0149 572.353 71.1687 572.353 71.4312V81.7436C572.353 82.0061 572.199 82.1599 571.953 82.1599H571.598C571.336 82.1599 571.182 82.0061 571.182 81.7436Z" fill="white"/>
<path d="M576.303 78.8456V74.885C576.303 74.637 576.457 74.4686 576.719 74.4686H577.074C577.337 74.4686 577.49 74.6225 577.49 74.885V78.8456C577.49 80.6955 578.461 81.2802 579.433 81.2802C580.28 81.2802 582.021 80.6792 582.038 78.1975V74.8831C582.038 74.6207 582.192 74.4668 582.454 74.4668H582.809C583.071 74.4668 583.225 74.6207 583.225 74.8831V81.7436C583.225 82.0061 583.071 82.1599 582.809 82.1599H582.454C582.192 82.1599 582.038 82.0061 582.038 81.7436V80.5254C581.638 81.7436 580.495 82.3283 579.355 82.3283C577.72 82.3283 576.305 81.3725 576.305 78.8456H576.303Z" fill="white"/>
<path d="M592.959 85.1974V74.885C592.959 74.6225 593.113 74.4686 593.359 74.4686H593.715C593.978 74.4686 594.132 74.6225 594.132 74.885V75.9783C594.825 74.8216 595.92 74.2985 597.139 74.2985C599.481 74.2985 600.993 76.1014 600.993 78.3206C600.993 80.5399 599.512 82.3283 597.153 82.3283C595.904 82.3283 594.811 81.7907 594.132 80.6485V85.1974C594.132 85.4598 593.978 85.6137 593.715 85.6137H593.359C593.113 85.6137 592.959 85.4598 592.959 85.1974ZM599.805 78.3206C599.805 76.6861 598.771 75.3466 597.014 75.3466C595.256 75.3466 594.117 76.5956 594.101 78.3206C594.117 80.0167 595.29 81.2802 597.014 81.2802C598.737 81.2802 599.805 79.9244 599.805 78.3206Z" fill="white"/>
<path d="M603.833 78.3206C603.833 76.1159 605.652 74.2985 607.855 74.2985C610.058 74.2985 611.91 76.1322 611.91 78.3206C611.91 80.5091 610.091 82.3283 607.855 82.3283C605.619 82.3283 603.833 80.5562 603.833 78.3206ZM610.724 78.3369C610.724 76.7024 609.444 75.3466 607.855 75.3466C606.266 75.3466 605.018 76.7024 605.018 78.3369C605.018 79.9715 606.298 81.2802 607.855 81.2802C609.412 81.2802 610.724 79.9552 610.724 78.3369Z" fill="white"/>
<path d="M615.339 81.7436V74.8831C615.339 74.6352 615.492 74.4668 615.739 74.4668H616.095C616.358 74.4668 616.512 74.6207 616.512 74.8831V76.0851C616.912 74.8524 618.023 74.2967 619.071 74.2967C619.98 74.2967 621.153 74.6189 621.692 76.0996C622.31 74.6514 623.481 74.2967 624.391 74.2967C626.147 74.2967 627.427 75.2524 627.427 77.7957V81.7418C627.427 82.0043 627.273 82.1581 627.011 82.1581H626.656C626.394 82.1581 626.256 82.0043 626.256 81.7418V77.7957C626.256 75.9294 625.298 75.3447 624.328 75.3447C623.542 75.3447 622.047 75.8842 621.971 78.3043V81.7418C621.971 82.0043 621.817 82.1581 621.555 82.1581H621.2C620.954 82.1581 620.8 82.0043 620.8 81.7418V77.7957C620.8 75.9294 619.86 75.3447 618.874 75.3447C618.027 75.3447 616.53 75.9457 616.515 78.4274V81.7436C616.515 82.0061 616.361 82.1599 616.099 82.1599H615.742C615.496 82.1599 615.342 82.0061 615.342 81.7436H615.339Z" fill="white"/>
<path d="M630.762 78.3206C630.762 76.1159 632.242 74.2985 634.601 74.2985C635.85 74.2985 636.929 74.8379 637.622 75.9928V74.8831C637.622 74.6352 637.762 74.4668 638.024 74.4668H638.379C638.641 74.4668 638.795 74.6207 638.795 74.8831V81.7436C638.795 82.0061 638.641 82.1599 638.379 82.1599H638.024C637.762 82.1599 637.622 82.0061 637.622 81.7436V80.6485C636.929 81.8196 635.834 82.3283 634.601 82.3283C632.273 82.3283 630.762 80.5254 630.762 78.3206ZM637.637 78.3206C637.637 76.6263 636.466 75.3465 634.724 75.3465C632.983 75.3465 631.933 76.7023 631.933 78.3206C631.933 79.9389 632.966 81.2802 634.739 81.2802C636.511 81.2802 637.637 80.0475 637.637 78.3206ZM634.199 73.0332L635.293 71.1832C635.356 71.0764 635.446 71.0149 635.586 71.0149H636.357C636.558 71.0149 636.634 71.1398 636.511 71.3081L635.153 73.1744C635.077 73.2812 634.985 73.3282 634.862 73.3282H634.368C634.167 73.3282 634.089 73.1888 634.197 73.035L634.199 73.0332Z" fill="white"/>
<path d="M642.836 81.7436V71.4312C642.836 71.1687 642.99 71.0149 643.236 71.0149H643.592C643.855 71.0149 644.009 71.1687 644.009 71.4312V76.1014C644.425 74.885 645.549 74.2985 646.69 74.2985C648.324 74.2985 649.742 75.2542 649.742 77.7975V81.7436C649.742 82.0061 649.588 82.1599 649.325 82.1599H648.971C648.708 82.1599 648.554 82.0061 648.554 81.7436V77.7975C648.554 75.9312 647.584 75.3465 646.612 75.3465C645.765 75.3465 644.021 75.9475 644.007 78.4292V81.7454C644.007 82.0079 643.853 82.1617 643.591 82.1617H643.234C642.988 82.1617 642.834 82.0079 642.834 81.7454L642.836 81.7436Z" fill="white"/>
<path d="M653.063 78.3206C653.063 76.1159 654.544 74.2985 656.903 74.2985C658.152 74.2985 659.231 74.8379 659.926 75.9928V74.8831C659.926 74.6352 660.064 74.4668 660.326 74.4668H660.681C660.943 74.4668 661.097 74.6207 661.097 74.8831V81.7436C661.097 82.0061 660.943 82.1599 660.681 82.1599H660.326C660.064 82.1599 659.926 82.0061 659.926 81.7436V80.6485C659.231 81.8196 658.138 82.3283 656.903 82.3283C654.575 82.3283 653.063 80.5254 653.063 78.3206ZM659.939 78.3206C659.939 76.6263 658.767 75.3465 657.026 75.3465C655.285 75.3465 654.235 76.7023 654.235 78.3206C654.235 79.9389 655.268 81.2802 657.041 81.2802C658.813 81.2802 659.939 80.0475 659.939 78.3206ZM656.501 73.0332L657.594 71.1832C657.658 71.0764 657.748 71.0149 657.888 71.0149H658.659C658.86 71.0149 658.938 71.1398 658.813 71.3081L657.457 73.1744C657.379 73.2812 657.287 73.3282 657.164 73.3282H656.669C656.468 73.3282 656.391 73.1888 656.499 73.035L656.501 73.0332Z" fill="white"/>
<path d="M665.139 81.7436V74.8831C665.139 74.6352 665.293 74.4668 665.539 74.4668H665.896C666.159 74.4668 666.312 74.6207 666.312 74.8831V76.0851C666.712 74.8524 667.824 74.2967 668.872 74.2967C669.781 74.2967 670.954 74.6189 671.493 76.0996C672.111 74.6514 673.282 74.2967 674.192 74.2967C675.948 74.2967 677.228 75.2524 677.228 77.7957V81.7418C677.228 82.0043 677.074 82.1581 676.812 82.1581H676.457C676.194 82.1581 676.057 82.0043 676.057 81.7418V77.7957C676.057 75.9294 675.099 75.3447 674.129 75.3447C673.343 75.3447 671.848 75.8842 671.772 78.3043V81.7418C671.772 82.0043 671.618 82.1581 671.356 82.1581H671.001C670.755 82.1581 670.601 82.0043 670.601 81.7418V77.7957C670.601 75.9294 669.661 75.3447 668.675 75.3447C667.828 75.3447 666.331 75.9457 666.316 78.4274V81.7436C666.316 82.0061 666.162 82.1599 665.9 82.1599H665.543C665.297 82.1599 665.143 82.0061 665.143 81.7436H665.139Z" fill="white"/>
<path d="M680.546 78.3532C680.546 76.1177 682.288 74.2985 684.663 74.2985C686.543 74.2985 688.299 75.4226 688.5 77.8898C688.547 78.1523 688.377 78.3061 688.1 78.3061H681.734C681.627 80.0185 682.966 81.2802 684.864 81.2802C685.68 81.2802 686.466 81.0485 687.177 80.5109C687.378 80.3715 687.577 80.386 687.747 80.5562L687.872 80.681C688.041 80.8657 688.041 81.1137 687.78 81.3291C686.886 82.0839 685.836 82.3301 684.867 82.3301C682.215 82.3301 680.55 80.5272 680.55 78.3532H680.546ZM687.315 77.3956C686.96 75.8081 685.758 75.3466 684.693 75.3466C683.491 75.3466 682.288 75.9783 681.841 77.3956H687.313H687.315Z" fill="white"/>
<path d="M545.806 63.6116C542.87 63.6116 540.298 63.0052 538.089 61.7924C535.881 60.5796 534.163 58.8726 532.937 56.6715C531.712 54.4685 531.098 51.88 531.098 48.9041C531.098 46.7356 531.458 44.7516 532.179 42.9542C532.899 41.1567 533.922 39.5945 535.249 38.2677C536.576 36.9409 538.138 35.9181 539.936 35.1977C541.733 34.4773 543.71 34.117 545.866 34.117C548.022 34.117 549.988 34.3976 551.563 34.9551C552.763 35.3805 553.862 35.9417 554.859 36.6368C555.382 37.0024 555.52 37.721 555.181 38.2623L553.798 40.4779C553.433 41.0626 552.656 41.2182 552.089 40.8272C551.472 40.4001 550.793 40.0579 550.057 39.8045C548.905 39.4081 547.629 39.209 546.228 39.209C544.733 39.209 543.393 39.4316 542.207 39.8751C541.022 40.3204 540.012 40.963 539.177 41.8047C538.343 42.6464 537.702 43.6601 537.258 44.8458C536.815 46.0314 536.592 47.3637 536.592 48.8462C536.592 50.8808 536.989 52.6131 537.783 54.0486C538.578 55.484 539.709 56.5846 541.177 57.3521C542.646 58.1196 544.391 58.5033 546.411 58.5033C547.77 58.5033 549.101 58.2952 550.401 57.877C551.32 57.582 552.204 57.162 553.052 56.6172C553.632 56.2461 554.408 56.4633 554.738 57.0661L555.996 59.3613C556.298 59.9116 556.13 60.6049 555.607 60.9506C554.479 61.6928 553.223 62.292 551.834 62.7463C550.062 63.3256 548.053 63.6152 545.804 63.6152L545.806 63.6116Z" fill="white"/>
<path d="M564.473 63.6116C563.099 63.6116 561.881 63.3491 560.817 62.8241C559.752 62.2992 558.918 61.5552 558.311 60.5922C557.705 59.6292 557.402 58.487 557.402 57.1674C557.402 56.0361 557.685 55.026 558.251 54.1373C558.818 53.2485 559.685 52.5099 560.858 51.9253C562.029 51.3388 563.528 50.946 565.353 50.7432C567.178 50.5405 569.343 50.5676 571.848 50.8247L571.929 54.2386C570.286 53.9834 568.852 53.8675 567.627 53.8947C566.401 53.9218 565.387 54.063 564.585 54.3183C563.783 54.5735 563.184 54.9247 562.788 55.3682C562.39 55.8135 562.192 56.3312 562.192 56.9231C562.192 57.8119 562.516 58.4961 563.163 58.974C563.809 59.4518 564.69 59.6908 565.809 59.6908C566.765 59.6908 567.625 59.5152 568.385 59.1658C569.145 58.8165 569.748 58.3205 570.193 57.6815C570.637 57.0425 570.86 56.2841 570.86 55.408V50.2961C570.86 49.4472 570.68 48.7104 570.324 48.0841C569.967 47.4578 569.424 46.9727 568.698 46.6288C567.971 46.2848 567.035 46.1147 565.891 46.1147C564.841 46.1147 563.8 46.2722 562.77 46.5889C562.176 46.7718 561.604 47.0107 561.052 47.3076C560.407 47.6533 559.609 47.3601 559.35 46.6758L558.829 45.2929C558.619 44.7372 558.843 44.1072 559.359 43.8158C560.371 43.2456 561.423 42.8202 562.516 42.5396C563.93 42.1758 565.297 41.9948 566.618 41.9948C568.505 41.9948 570.137 42.2917 571.519 42.8836C572.898 43.4755 573.962 44.3824 574.71 45.6006C575.458 46.8206 575.83 48.3647 575.83 50.2364V61.7978C575.83 62.4639 575.291 63.0033 574.625 63.0033H572.471C571.805 63.0033 571.265 62.4639 571.265 61.7978V60.7008C570.592 61.6294 569.661 62.3481 568.477 62.8531C567.292 63.3581 565.959 63.6116 564.477 63.6116H564.473Z" fill="white"/>
<path d="M579.929 61.7996V44.0095C579.929 43.3434 580.468 42.8039 581.134 42.8039H583.893C584.559 42.8039 585.099 43.3434 585.099 44.0095V45.4504C585.799 44.2647 586.677 43.423 587.735 42.9252C588.792 42.4274 589.934 42.1776 591.159 42.1776C591.59 42.1776 591.989 42.1975 592.351 42.2374C592.714 42.2772 593.064 42.3387 593.4 42.4184L592.754 47.7529C592.336 47.6044 591.902 47.494 591.451 47.4198C591 47.3456 590.551 47.3094 590.108 47.3094C588.652 47.3094 587.454 47.7438 586.511 48.6127C585.568 49.4816 585.097 50.698 585.097 52.2601V61.8014C585.097 62.4675 584.558 63.007 583.891 63.007H581.133C580.466 63.007 579.927 62.4675 579.927 61.8014L579.929 61.7996Z" fill="white"/>
<path d="M600.958 63.6116C599.584 63.6116 598.366 63.3491 597.301 62.8241C596.237 62.2992 595.403 61.5552 594.796 60.5922C594.19 59.6292 593.887 58.487 593.887 57.1674C593.887 56.0361 594.17 55.026 594.736 54.1373C595.301 53.2485 596.17 52.5099 597.343 51.9253C598.516 51.3388 600.013 50.946 601.838 50.7432C603.663 50.5405 605.828 50.5676 608.333 50.8247L608.414 54.2386C606.771 53.9834 605.337 53.8675 604.112 53.8947C602.886 53.9218 601.872 54.063 601.07 54.3183C600.268 54.5735 599.669 54.9247 599.273 55.3682C598.875 55.8135 598.677 56.3312 598.677 56.9231C598.677 57.8119 599.001 58.4961 599.648 58.974C600.294 59.4518 601.175 59.6908 602.294 59.6908C603.25 59.6908 604.11 59.5152 604.87 59.1658C605.63 58.8165 606.233 58.3205 606.678 57.6815C607.124 57.0425 607.345 56.2841 607.345 55.408V50.2961C607.345 49.4472 607.165 48.7104 606.809 48.0841C606.452 47.4578 605.909 46.9727 605.183 46.6288C604.455 46.2848 603.52 46.1147 602.374 46.1147C601.324 46.1147 600.283 46.2722 599.253 46.5889C598.659 46.7718 598.087 47.0107 597.535 47.3076C596.891 47.6533 596.092 47.3601 595.833 46.6758L595.312 45.2929C595.102 44.7372 595.327 44.1072 595.842 43.8158C596.854 43.2456 597.906 42.8202 598.999 42.5396C600.413 42.1758 601.78 41.9948 603.101 41.9948C604.986 41.9948 606.62 42.2917 608 42.8836C609.379 43.4755 610.444 44.3824 611.191 45.6006C611.939 46.8206 612.312 48.3647 612.312 50.2364V61.7978C612.312 62.4639 611.772 63.0033 611.106 63.0033H608.954C608.288 63.0033 607.748 62.4639 607.748 61.7978V60.7008C607.075 61.6294 606.144 62.3481 604.961 62.8531C603.775 63.3581 602.443 63.6116 600.96 63.6116H600.958Z" fill="white"/>
<path d="M626.171 61.901V36.0304C626.171 35.3642 626.71 34.8248 627.376 34.8248H636.777C638.81 34.8248 640.615 35.1778 642.191 35.8856C643.766 36.5933 645.003 37.6124 645.899 38.9465C646.795 40.2788 647.242 41.8826 647.242 43.7543C647.242 45.6259 646.827 47.2623 646 48.5819C645.171 49.9015 643.969 50.908 642.394 51.6012C640.819 52.2945 638.906 52.6421 636.656 52.6421H631.424V61.901C631.424 62.5671 630.885 63.1065 630.218 63.1065H627.378C626.712 63.1065 626.173 62.5671 626.173 61.901H626.171ZM631.424 48.1783H636.636C638.319 48.1783 639.632 47.8271 640.575 47.1284C641.516 46.4278 641.989 45.3381 641.989 43.8556C641.989 42.3731 641.507 41.2599 640.544 40.5123C639.581 39.7647 638.292 39.3918 636.676 39.3918H631.422V48.1801L631.424 48.1783Z" fill="white"/>
<path d="M649.888 61.901V35.223C649.888 34.5569 650.428 34.0175 651.094 34.0175H653.853C654.519 34.0175 655.058 34.5569 655.058 35.223V61.901C655.058 62.5671 654.519 63.1065 653.853 63.1065H651.094C650.428 63.1065 649.888 62.5671 649.888 61.901Z" fill="white"/>
<path d="M665.02 63.7129C663.646 63.7129 662.428 63.4505 661.363 62.9255C660.299 62.4006 659.464 61.6566 658.858 60.6936C658.252 59.7306 657.949 58.5884 657.949 57.2688C657.949 56.1375 658.232 55.1274 658.798 54.2386C659.363 53.3498 660.232 52.6113 661.405 52.0266C662.576 51.4401 664.075 51.0473 665.9 50.8446C667.724 50.6419 669.889 50.669 672.395 50.9261L672.476 54.34C670.833 54.0848 669.399 53.9689 668.173 53.9961C666.948 54.0232 665.934 54.1644 665.132 54.4196C664.33 54.6749 663.731 55.026 663.335 55.4695C662.938 55.9148 662.739 56.4325 662.739 57.0244C662.739 57.9132 663.063 58.5975 663.709 59.0753C664.356 59.5532 665.237 59.7921 666.356 59.7921C667.312 59.7921 668.17 59.6166 668.932 59.2672C669.692 58.9178 670.295 58.4219 670.74 57.7829C671.186 57.1439 671.408 56.3855 671.408 55.5093V50.3975C671.408 49.5485 671.229 48.8118 670.872 48.1855C670.516 47.5592 669.973 47.0741 669.247 46.7301C668.519 46.3862 667.583 46.2161 666.439 46.2161C665.389 46.2161 664.348 46.3735 663.318 46.6903C662.725 46.8731 662.153 47.1121 661.6 47.4089C660.956 47.7547 660.158 47.4614 659.899 46.7772L659.377 45.3942C659.167 44.8385 659.392 44.2086 659.908 43.9172C660.92 43.347 661.972 42.9216 663.065 42.641C664.479 42.2772 665.845 42.0962 667.167 42.0962C669.053 42.0962 670.686 42.393 672.065 42.9849C673.447 43.5769 674.511 44.4837 675.257 45.702C676.004 46.922 676.377 48.4661 676.377 50.3378V61.8992C676.377 62.5653 675.838 63.1047 675.172 63.1047H673.019C672.353 63.1047 671.814 62.5653 671.814 61.8992V60.8022C671.14 61.7308 670.21 62.4494 669.026 62.9545C667.84 63.4595 666.508 63.7129 665.025 63.7129H665.02Z" fill="white"/>
<path d="M687.546 63.693C685.808 63.693 684.196 63.4577 682.708 62.9852C681.612 62.6377 680.64 62.1978 679.79 61.6602C679.275 61.3362 679.105 60.6665 679.371 60.1216L680.124 58.583C680.427 57.9657 681.189 57.7123 681.786 58.0544C682.485 58.4545 683.227 58.7911 684.013 59.0645C685.211 59.4826 686.382 59.6908 687.528 59.6908C688.741 59.6908 689.682 59.488 690.358 59.0844C691.031 58.6807 691.368 58.1141 691.368 57.3883C691.368 56.7022 691.071 56.1972 690.479 55.8732C689.887 55.5492 688.768 55.2125 687.125 54.8631C684.512 54.3509 682.612 53.5942 681.428 52.5914C680.242 51.5886 679.65 50.2038 679.65 48.4389C679.65 47.1863 679.996 46.0821 680.691 45.1245C681.384 44.1688 682.34 43.4248 683.56 42.8926C684.78 42.3604 686.183 42.0944 687.773 42.0944C689.362 42.0944 690.787 42.3098 692.166 42.7406C693.169 43.0537 694.072 43.461 694.872 43.9588C695.381 44.2756 695.557 44.9345 695.305 45.4775L694.621 46.951C694.32 47.599 693.527 47.8398 692.912 47.4759C692.689 47.3438 692.457 47.2207 692.217 47.1048C691.543 46.7808 690.832 46.5328 690.084 46.3572C689.337 46.1817 688.6 46.0948 687.872 46.0948C686.808 46.0948 685.95 46.283 685.296 46.6614C684.643 47.0397 684.317 47.57 684.317 48.2579C684.317 48.9458 684.621 49.4526 685.226 49.782C685.832 50.1133 686.929 50.459 688.518 50.8229C691.212 51.4021 693.138 52.1696 694.297 53.1254C695.455 54.0811 696.034 55.4206 696.034 57.1457C696.034 58.4653 695.678 59.6129 694.963 60.5904C694.25 61.5679 693.256 62.3282 691.983 62.873C690.711 63.4179 689.232 63.6912 687.548 63.6912L687.546 63.693Z" fill="white"/>
<path d="M699.204 61.901V44.1109C699.204 43.4447 699.744 42.9053 700.41 42.9053H703.168C703.835 42.9053 704.374 43.4447 704.374 44.1109V45.5916C704.899 44.8367 705.505 44.2177 706.193 43.7325C706.879 43.2474 707.614 42.8872 708.395 42.6519C709.175 42.4166 709.964 42.2989 710.759 42.2989C712.348 42.2989 713.688 42.6501 714.779 43.3488C715.871 44.0493 716.631 44.9652 717.062 46.0966C717.991 44.6955 719.122 43.7126 720.456 43.1479C721.79 42.5813 723.157 42.2989 724.558 42.2989C726.457 42.2989 727.965 42.67 729.084 43.4103C730.202 44.1507 731.002 45.101 731.488 46.2577C731.973 47.4162 732.215 48.629 732.215 49.8943V61.901C732.215 62.5671 731.676 63.1065 731.01 63.1065H728.249C727.583 63.1065 727.043 62.5671 727.043 61.901V51.3894C727.043 50.0843 726.69 49.029 725.983 48.2289C725.275 47.427 724.241 47.027 722.882 47.027C722.006 47.027 721.222 47.2153 720.528 47.5936C719.835 47.9701 719.288 48.4932 718.892 49.1594C718.494 49.8255 718.296 50.5839 718.296 51.4329V61.9028C718.296 62.5689 717.757 63.1083 717.091 63.1083H714.33C713.664 63.1083 713.125 62.5689 713.125 61.9028V51.3913C713.125 50.0861 712.772 49.0308 712.064 48.2307C711.356 47.4288 710.322 47.0288 708.963 47.0288C708.087 47.0288 707.303 47.2171 706.61 47.5954C705.916 47.9719 705.37 48.495 704.973 49.1612C704.575 49.8273 704.378 50.5857 704.378 51.4347V61.9046C704.378 62.5707 703.838 63.1101 703.172 63.1101H700.413C699.747 63.1101 699.208 62.5707 699.208 61.9046L699.204 61.901Z" fill="white"/>
<path d="M741.972 63.7129C740.598 63.7129 739.38 63.4505 738.316 62.9255C737.251 62.4006 736.417 61.6566 735.81 60.6936C735.204 59.7306 734.902 58.5884 734.902 57.2688C734.902 56.1375 735.184 55.1274 735.751 54.2386C736.315 53.3498 737.184 52.6113 738.357 52.0266C739.529 51.4401 741.027 51.0473 742.852 50.8446C744.677 50.6419 746.842 50.669 749.347 50.9261L749.429 54.34C747.785 54.0848 746.351 53.9689 745.126 53.9961C743.9 54.0232 742.886 54.1644 742.085 54.4196C741.283 54.6749 740.683 55.026 740.287 55.4695C739.891 55.9148 739.691 56.4325 739.691 57.0244C739.691 57.9132 740.015 58.5975 740.662 59.0753C741.308 59.5532 742.19 59.7921 743.308 59.7921C744.264 59.7921 745.122 59.6166 745.884 59.2672C746.644 58.9178 747.247 58.4219 747.693 57.7829C748.138 57.1439 748.361 56.3855 748.361 55.5093V50.3975C748.361 49.5485 748.181 48.8118 747.825 48.1855C747.468 47.5592 746.925 47.0741 746.199 46.7301C745.471 46.3862 744.536 46.2161 743.392 46.2161C742.342 46.2161 741.301 46.3735 740.271 46.6903C739.677 46.8731 739.105 47.1121 738.553 47.4089C737.908 47.7547 737.11 47.4614 736.851 46.7772L736.33 45.3942C736.12 44.8385 736.344 44.2086 736.86 43.9172C737.872 43.347 738.924 42.9216 740.017 42.641C741.431 42.2772 742.798 42.0962 744.119 42.0962C746.005 42.0962 747.638 42.393 749.018 42.9849C750.399 43.5769 751.463 44.4837 752.209 45.702C752.957 46.922 753.33 48.4661 753.33 50.3378V61.8992C753.33 62.5653 752.79 63.1047 752.124 63.1047H749.972C749.306 63.1047 748.766 62.5653 748.766 61.8992V60.8022C748.093 61.7308 747.162 62.4494 745.978 62.9545C744.793 63.4595 743.46 63.7129 741.978 63.7129H741.972Z" fill="white"/>
<path d="M485.951 68.9803C485.028 70.1912 483.962 71.3208 482.754 72.3489C480.03 74.6677 476.898 76.1955 473.64 76.9558C465.985 78.7442 457.625 76.2932 452.176 69.8962C444.41 60.7767 445.507 47.0865 454.629 39.321C460.932 33.9539 469.417 32.819 476.621 35.641C475.139 41.4389 476.069 47.7708 479.545 53.0075C479.574 53.051 479.603 53.0944 479.632 53.1379C479.601 53.1342 479.572 53.1306 479.543 53.127C479.505 53.1216 479.465 53.1161 479.427 53.1107C477.684 52.8555 476.073 51.9341 474.891 50.5675C472.132 47.3744 466.96 46.768 463.613 49.7004C455.712 57.0261 465.72 67.8598 473.329 62.4275C473.352 62.4112 473.378 62.3949 473.401 62.3768C473.419 62.3642 473.439 62.3515 473.457 62.3388C475.349 60.9867 477.785 60.583 479.987 61.3378C481.127 61.7288 482.206 62.3044 483.169 63.0285C485.021 64.4259 485.957 66.6669 485.951 68.9803Z" fill="url(#paint0_radial_66_7995)"/>
<path d="M512.009 57.2759C511.533 56.5572 511.008 55.8603 510.436 55.1869C507.732 52.0101 504.309 49.8072 500.609 48.6125C505.436 46.7951 507.652 40.0415 503.887 35.8799C501.018 32.5004 495.953 32.0859 492.573 34.9531C490.214 36.9533 489.302 40.0234 489.937 42.8436C490.337 44.6157 490.156 46.4711 489.347 48.0423C489.338 48.0622 489.327 48.0839 489.316 48.1038C489.269 48.1889 489.222 48.274 489.173 48.3591C489.15 48.3989 489.128 48.4369 489.103 48.4749C488.882 48.8388 488.627 49.1827 488.332 49.5031C486.478 51.5214 483.864 52.841 481.147 53.1451C480.682 53.1958 480.218 53.1958 479.762 53.1523C479.719 53.1487 479.675 53.1433 479.632 53.1379C479.603 53.0944 479.574 53.051 479.545 53.0075C476.069 47.7708 475.139 41.4389 476.621 35.641C477.695 31.4505 480.026 27.537 483.571 24.5195C492.693 16.7521 506.381 17.8509 514.149 26.9704C521.824 35.9867 520.841 49.4669 512.009 57.2759Z" fill="url(#paint1_radial_66_7995)"/>
<path d="M507.983 85.7639C498.864 93.5295 485.173 92.4325 477.407 83.3112C475.751 81.3671 474.498 79.2148 473.64 76.9558C476.898 76.1955 480.03 74.6677 482.754 72.3489C483.962 71.3208 485.028 70.1912 485.951 68.9803C485.951 69.0183 485.949 69.0581 485.949 69.0979V69.1631C485.794 75.5294 493.786 80.0674 499.198 75.3936C503.313 72.101 502.67 65.5862 498.697 62.7316C498.683 62.7208 498.67 62.7099 498.655 62.7009C498.619 62.6719 498.581 62.6448 498.543 62.6194C496.617 61.3107 495.373 59.1729 495.33 56.845C495.308 55.6865 495.464 54.5226 495.79 53.4112C496.454 51.1413 498.288 49.4542 500.513 48.6505C500.542 48.6415 500.567 48.6288 500.596 48.6179C500.6 48.6161 500.605 48.6143 500.609 48.6125C504.309 49.8072 507.732 52.0101 510.436 55.187C511.008 55.8603 511.533 56.5572 512.009 57.2759C517.996 66.2958 516.432 78.5704 507.983 85.7639Z" fill="url(#paint2_radial_66_7995)"/>
<defs>
<radialGradient id="paint0_radial_66_7995" cx="0" cy="0" r="1" gradientUnits="userSpaceOnUse" gradientTransform="translate(452.37 44.4636) scale(20.613 20.6121)">
<stop stop-color="#F2B228"/>
<stop offset="0.99" stop-color="#F3912F"/>
</radialGradient>
<radialGradient id="paint1_radial_66_7995" cx="0" cy="0" r="1" gradientUnits="userSpaceOnUse" gradientTransform="translate(510.183 25.9658) scale(20.3758 20.375)">
<stop stop-color="#F18413"/>
<stop offset="1" stop-color="#EA5719"/>
</radialGradient>
<radialGradient id="paint2_radial_66_7995" cx="0" cy="0" r="1" gradientUnits="userSpaceOnUse" gradientTransform="translate(511.725 58.5719) scale(21.0746 21.0737)">
<stop offset="0.02" stop-color="#8DC152"/>
<stop offset="1" stop-color="#4E8330"/>
</radialGradient>
</defs>
</svg>
